<svg width="313" height="261" viewBox="0 0 313 261" fill="none" xmlns="http://www.w3.org/2000/svg">
<g clip-path="url(#clip0_67_4534)">
<path d="M14.5438 248.705C18.8854 256.748 28.0999 260.201 28.0999 260.201C28.0999 260.201 30.2752 250.613 25.9336 242.571C21.592 234.528 12.3775 231.075 12.3775 231.075C12.3775 231.075 10.2022 240.663 14.5438 248.705Z" fill="#2F2E41"/>
<path d="M17.5282 246.059C25.3666 250.77 28.3854 260.127 28.3854 260.127C28.3854 260.127 18.6957 261.846 10.8572 257.135C3.01882 252.425 0 243.068 0 243.068C0 243.068 9.68976 241.349 17.5282 246.059Z" fill="#6C4FE1"/>
<path d="M193.267 12.5298H144.36V13.2277H193.267V12.5298Z" fill="#F2F2F2"/>
<path d="M179.992 13.0532H179.293V19.5087H179.992V13.0532Z" fill="#F2F2F2"/>
<path d="M158.683 13.0532H157.984V19.5087H158.683V13.0532Z" fill="#F2F2F2"/>
<path d="M218.069 46.0283H169.163V46.7262H218.069V46.0283Z" fill="#F2F2F2"/>
<path d="M183.136 39.7473H182.438V46.2028H183.136V39.7473Z" fill="#F2F2F2"/>
<path d="M204.445 39.7473H203.747V46.2028H204.445V39.7473Z" fill="#F2F2F2"/>
<path d="M283.044 61.731H234.138V62.4288H283.044V61.731Z" fill="#F2F2F2"/>
<path d="M248.111 55.45H247.413V61.9054H248.111V55.45Z" fill="#F2F2F2"/>
<path d="M269.42 55.45H268.722V61.9054H269.42V55.45Z" fill="#F2F2F2"/>
<path d="M278.154 223.641H229.248V224.339H278.154V223.641Z" fill="#F2F2F2"/>
<path d="M243.221 217.36H242.522V223.815H243.221V217.36Z" fill="#F2F2F2"/>
<path d="M264.53 217.36H263.831V223.815H264.53V217.36Z" fill="#F2F2F2"/>
<path d="M194.664 111.63H145.758V112.328H194.664V111.63Z" fill="#F2F2F2"/>
<path d="M159.731 105.349H159.032V111.804H159.731V105.349Z" fill="#F2F2F2"/>
<path d="M181.04 105.349H180.341V111.804H181.04V105.349Z" fill="#F2F2F2"/>
<path d="M210.034 195.725H161.128V196.423H210.034V195.725Z" fill="#F2F2F2"/>
<path d="M175.102 189.444H174.403V195.9H175.102V189.444Z" fill="#F2F2F2"/>
<path d="M196.411 189.444H195.712V195.9H196.411V189.444Z" fill="#F2F2F2"/>
<path d="M288.284 170.252H239.378V170.95H288.284V170.252Z" fill="#F2F2F2"/>
<path d="M253.351 163.971H252.653V170.427H253.351V163.971Z" fill="#F2F2F2"/>
<path d="M274.661 163.971H273.962V170.427H274.661V163.971Z" fill="#F2F2F2"/>
<path d="M126.479 245.023H43.7622V244.429H125.883V215.599H50.716L47.0644 208L47.601 207.743L51.0905 215.004H126.479V245.023Z" fill="#2F2E41"/>
<path d="M54.7708 259.586C58.2217 259.586 61.0192 256.792 61.0192 253.345C61.0192 249.898 58.2217 247.103 54.7708 247.103C51.32 247.103 48.5225 249.898 48.5225 253.345C48.5225 256.792 51.32 259.586 54.7708 259.586Z" fill="#3F3D56"/>
<path d="M116.362 259.586C119.813 259.586 122.611 256.792 122.611 253.345C122.611 249.898 119.813 247.103 116.362 247.103C112.911 247.103 110.114 249.898 110.114 253.345C110.114 256.792 112.911 259.586 116.362 259.586Z" fill="#3F3D56"/>
<path d="M188.962 124.652C191.099 124.652 192.83 122.922 192.83 120.788C192.83 118.654 191.099 116.924 188.962 116.924C186.826 116.924 185.094 118.654 185.094 120.788C185.094 122.922 186.826 124.652 188.962 124.652Z" fill="#3F3D56"/>
<path d="M135.326 205.791H42.3517L22.2344 140.107H156.043L155.922 140.493L135.326 205.791ZM42.7919 205.196H134.889L155.232 140.701H23.0387L42.7919 205.196Z" fill="#2F2E41"/>
<path d="M128.068 202.373H46.4057L28.7358 144.119H146.265L146.158 144.462L128.068 202.373Z" fill="#F2F2F2"/>
<path d="M157.711 134.239L157.135 134.086L161.062 119.302H183.904V119.896H161.52L157.711 134.239Z" fill="#2F2E41"/>
<path d="M149.357 160.02H28.7354V160.614H149.357V160.02Z" fill="#2F2E41"/>
<path d="M142.449 181.92H35.4429V182.514H142.449V181.92Z" fill="#2F2E41"/>
<path d="M89.4344 140.404H88.8394V205.494H89.4344V140.404Z" fill="#2F2E41"/>
<path d="M116.077 140.385L111.806 205.473L112.4 205.512L116.671 140.424L116.077 140.385Z" fill="#2F2E41"/>
<path d="M62.2092 140.385L61.6152 140.423L65.8622 205.513L66.4561 205.474L62.2092 140.385Z" fill="#2F2E41"/>
<path d="M313 259.963H0V260.661H313V259.963Z" fill="#2F2E41"/>
<path d="M207.995 21.5913C207.995 21.5913 213.102 36.1096 209.959 38.3432C206.817 40.5768 220.565 58.8176 220.565 58.8176L237.064 54.3505L228.029 39.0877C228.029 39.0877 226.85 23.8249 226.85 21.5913C226.85 19.3578 207.995 21.5913 207.995 21.5913Z" fill="#A0616A"/>
<path opacity="0.1" d="M207.995 21.5913C207.995 21.5913 213.102 36.1096 209.959 38.3432C206.817 40.5768 220.565 58.8176 220.565 58.8176L237.064 54.3505L228.029 39.0877C228.029 39.0877 226.85 23.8249 226.85 21.5913C226.85 19.3578 207.995 21.5913 207.995 21.5913Z" fill="black"/>
<path d="M199.423 125.08C199.423 125.08 197.933 143.693 199.423 153.372C200.914 163.051 203.15 189.854 203.15 189.854C203.15 189.854 203.15 240.482 211.349 241.226C219.548 241.971 225.511 242.715 226.256 239.737C227.001 236.759 222.529 235.27 224.765 233.781C227.001 232.292 227.747 227.08 224.765 221.124C221.784 215.168 224.765 154.861 224.765 154.861L238.927 192.832C238.927 192.832 240.418 224.102 241.908 228.569C243.399 233.037 240.418 241.226 245.635 241.971C250.852 242.715 256.815 238.248 259.797 236.759C262.778 235.27 255.325 235.27 256.815 234.526C258.306 233.781 262.778 231.548 261.287 230.803C259.797 230.058 258.306 194.321 258.306 194.321C258.306 194.321 254.207 118.007 248.989 115.029C243.772 112.051 240.418 117.181 240.418 117.181L199.423 125.08Z" fill="#2F2E41"/>
<path d="M212.84 238.248V244.205C212.84 244.205 206.132 260.395 212.84 260.395C219.548 260.395 224.765 262.073 224.765 259.84V239.737L212.84 238.248Z" fill="#2F2E41"/>
<path d="M256.815 238.238V244.194C256.815 244.194 263.523 260.385 256.815 260.385C250.107 260.385 244.89 262.062 244.89 259.829V239.727L256.815 238.238Z" fill="#2F2E41"/>
<path d="M218.43 32.3869C225.84 32.3869 231.846 26.3869 231.846 18.9854C231.846 11.584 225.84 5.58398 218.43 5.58398C211.02 5.58398 205.014 11.584 205.014 18.9854C205.014 26.3869 211.02 32.3869 218.43 32.3869Z" fill="#A0616A"/>
<path d="M214.331 43.927C214.331 43.927 218.057 55.0949 224.02 52.8613L229.983 50.6277L240.418 122.102C240.418 122.102 232.219 134.015 220.293 126.569C208.368 119.124 214.331 43.927 214.331 43.927Z" fill="#6C4FE1"/>
<path d="M224.766 41.6934L228.12 34.6204C228.12 34.6204 247.871 43.9269 250.853 46.905C253.834 49.8831 253.834 54.3503 253.834 54.3503L248.617 72.9634C248.617 72.9634 250.108 113.912 250.108 115.401C250.108 116.89 255.325 125.08 251.598 122.102C247.871 119.124 247.126 116.146 244.145 120.613C241.163 125.08 234.455 130.292 234.455 130.292L224.766 41.6934Z" fill="#3F3D56"/>
<path d="M250.853 95.2993L248.617 116.146C248.617 116.146 235.2 128.058 238.182 128.803C241.163 129.548 242.654 126.569 242.654 126.569C242.654 126.569 247.871 131.781 250.853 128.803C253.834 125.825 261.288 97.5329 261.288 97.5329L250.853 95.2993Z" fill="#A0616A"/>
<path d="M218.715 0.0453177C215.741 -0.0608903 212.558 -0.113428 210.051 1.48758C208.897 2.29105 207.885 3.28061 207.056 4.41575C204.614 7.49987 202.503 11.3804 203.411 15.207L204.464 14.7965C204.464 15.8179 204.237 16.8265 203.799 17.7494C203.947 17.3185 204.444 18.0152 204.311 18.4511L203.15 22.2548C205.058 21.5561 207.432 22.9708 207.722 24.98C207.855 20.5619 208.314 15.4958 211.902 12.9089C213.711 11.6043 216.001 11.206 218.204 10.8524C220.237 10.5261 222.368 10.215 224.314 10.8834C226.261 11.5518 227.919 13.5406 227.478 15.5491C228.375 15.2402 229.379 15.8651 229.823 16.7036C230.267 17.542 230.29 18.5312 230.303 19.4794C231.26 20.1549 232.349 18.8136 232.739 17.7099C233.654 15.1192 234.468 12.3615 233.975 9.65872C233.482 6.95594 231.277 4.37302 228.527 4.36385C228.86 3.99758 229.038 3.51596 229.023 3.02086L226.756 2.82953C227.332 2.74813 227.861 2.4694 228.253 2.04108C227.343 3.04147 220.187 0.0978721 218.715 0.0453177Z" fill="#2F2E41"/>
<path d="M218.057 39.46C218.057 39.46 211.99 33.5206 209.806 33.8845C207.622 34.2483 204.641 39.46 204.641 39.46C204.641 39.46 186.752 45.4162 187.498 51.3724C188.243 57.3286 196.442 86.3651 196.442 86.3651C196.442 86.3651 203.15 121.358 197.187 125.08C191.225 128.803 225.511 138.482 226.256 134.015C227.001 129.548 228.492 84.876 226.256 78.1753C224.02 71.4746 218.057 39.46 218.057 39.46Z" fill="#3F3D56"/>
<path d="M244.145 51.3723H253.361C253.361 51.3723 259.797 79.6643 260.542 82.6424C261.288 85.6205 262.778 99.7665 262.033 99.7665C261.288 99.7665 246.381 96.7884 246.381 99.022L244.145 51.3723Z" fill="#3F3D56"/>
<path d="M243.833 121.432H208.55C205.107 105.611 204.819 90.3252 208.55 75.7207H243.833C238.139 90.0625 237.783 105.244 243.833 121.432Z" fill="#F2F2F2"/>
<path d="M194.206 102L204.641 106.467C204.641 106.467 224.765 109.445 224.765 101.256C224.765 93.0658 204.641 97.5329 204.641 97.5329L197.932 95.3904L194.206 102Z" fill="#A0616A"/>
<path d="M196.442 46.905L187.498 49.1386L180.79 88.5985C180.79 88.5985 178.554 99.0218 182.28 99.7663C186.007 100.511 196.442 106.467 196.442 106.467C196.442 106.467 197.933 95.2992 200.914 95.2992L193.461 89.343L197.933 63.2846L196.442 46.905Z" fill="#3F3D56"/>
<path d="M69.9531 123.145H21.0469V123.843H69.9531V123.145Z" fill="#F2F2F2"/>
<path d="M35.02 116.864H34.3213V123.319H35.02V116.864Z" fill="#F2F2F2"/>
<path d="M56.329 116.864H55.6304V123.319H56.329V116.864Z" fill="#F2F2F2"/>
<path d="M87.0698 19.8577H38.1636V20.5555H87.0698V19.8577Z" fill="#F2F2F2"/>
<path d="M73.7953 20.3811H73.0967V26.8366H73.7953V20.3811Z" fill="#F2F2F2"/>
<path d="M52.4863 20.3811H51.7876V26.8366H52.4863V20.3811Z" fill="#F2F2F2"/>
<path d="M136.326 88.5996H87.4194V89.2975H136.326V88.5996Z" fill="#F2F2F2"/>
<path d="M123.051 89.123H122.353V95.5785H123.051V89.123Z" fill="#F2F2F2"/>
<path d="M101.742 89.123H101.043V95.5785H101.742V89.123Z" fill="#F2F2F2"/>
<path d="M53.1851 88.2507H4.27881V88.9486H53.1851V88.2507Z" fill="#F2F2F2"/>
<path d="M39.9106 88.7739H39.2119V95.2294H39.9106V88.7739Z" fill="#F2F2F2"/>
<path d="M18.6015 88.7739H17.9028V95.2294H18.6015V88.7739Z" fill="#F2F2F2"/>
<path d="M111.873 53.3562H62.9663V54.0541H111.873V53.3562Z" fill="#F2F2F2"/>
<path d="M76.9394 47.0752H76.2407V53.5307H76.9394V47.0752Z" fill="#F2F2F2"/>
<path d="M98.2485 47.0752H97.5498V53.5307H98.2485V47.0752Z" fill="#F2F2F2"/>
</g>
<defs>
<clipPath id="clip0_67_4534">
<rect width="313" height="261" fill="white"/>
</clipPath>
</defs>
</svg>
