<svg width="306" height="323" viewBox="0 0 306 323" fill="none" xmlns="http://www.w3.org/2000/svg">
<g clip-path="url(#clip0_67_4601)">
<path d="M17.798 295.297C20.7879 305.665 29.5181 312.923 38.6248 319.089C39.8964 319.95 41.1683 320.791 42.4407 321.612C42.4493 321.616 42.4582 321.624 42.4669 321.628C42.5281 321.667 42.5894 321.707 42.6465 321.746C42.9091 321.916 43.1718 322.085 43.4322 322.252L43.2891 322.316C43.2891 322.316 43.1487 322.391 43.3024 322.328C43.3481 322.309 43.396 322.292 43.4417 322.273C48.7321 320.14 54.1165 317.85 58.1708 313.854C62.3765 309.705 64.8344 303.198 62.557 297.747C62.2576 297.033 61.8795 296.355 61.4297 295.725C61.245 295.46 61.046 295.207 60.8388 294.959C59.5826 293.427 57.9407 292.256 56.082 291.568C54.2232 290.88 52.2146 290.699 50.2628 291.045C48.311 291.39 46.4865 292.248 44.9767 293.532C43.4669 294.816 42.3264 296.478 41.6725 298.349C41.0034 292.122 46.14 286.906 51.0832 283.058C56.0285 279.211 61.6479 275.022 62.604 268.83C63.1379 265.385 61.9393 262.046 59.756 259.365C59.6884 259.284 59.6209 259.203 59.5513 259.124C56.8935 256.002 53.1555 253.997 49.0837 253.51C41.5006 252.722 34.1348 256.735 28.6259 262.005C19.7593 270.484 14.399 283.509 17.798 295.297Z" fill="#F2F2F2"/>
<path d="M32.0512 281.736C30.5959 283.999 29.4785 286.463 28.7344 289.048C28.1051 291.359 27.8251 293.751 27.9035 296.145C28.1065 301.071 29.4899 305.876 31.9374 310.157C33.7811 313.404 36.028 316.405 38.6246 319.089C39.8961 319.95 41.1681 320.791 42.4404 321.613C42.4491 321.616 42.4579 321.624 42.4667 321.628C42.5279 321.667 42.5892 321.707 42.6462 321.746C42.9088 321.916 43.1715 322.085 43.432 322.252C43.432 322.252 43.1484 322.391 43.3021 322.328C43.3479 322.309 43.3958 322.292 43.4414 322.273C42.9673 318.387 43.4318 314.444 44.796 310.775C46.1603 307.105 48.3845 303.816 51.2824 301.183C54.1873 298.59 57.6641 296.719 61.4295 295.725C61.2447 295.46 61.0458 295.207 60.8386 294.959C59.3844 295.367 57.969 295.902 56.6091 296.559C51.7479 298.893 47.7675 302.729 45.257 307.499C43.0042 311.831 42.0347 316.716 42.4621 321.58C42.2448 321.383 42.0271 321.182 41.8161 320.982C37.7959 317.236 34.2252 312.935 31.8087 307.972C29.7122 303.77 28.6818 299.116 28.8083 294.421C29.0055 289.302 31.0459 284.56 34.0002 280.433C37.2382 276.029 41.0633 272.088 45.3693 268.72C49.7089 265.246 54.4574 262.315 59.5092 259.994C59.6231 259.941 59.7122 259.846 59.7581 259.729C59.804 259.612 59.8032 259.482 59.7558 259.366C59.7221 259.261 59.6485 259.174 59.551 259.124C59.5009 259.102 59.4465 259.092 59.392 259.094C59.3374 259.097 59.2841 259.111 59.236 259.137C58.6122 259.424 57.9928 259.715 57.3784 260.019C52.2609 262.547 47.4774 265.701 43.1378 269.408C38.9461 272.981 34.9999 277.062 32.0512 281.736Z" fill="white"/>
<path d="M119.918 137.244C128.466 132.573 131.485 121.634 126.66 112.812C121.836 103.989 110.994 100.624 102.446 105.295C93.8969 109.966 90.8781 120.905 95.7029 129.728C100.528 138.55 111.369 141.915 119.918 137.244Z" fill="#2F2E41"/>
<path d="M111.182 140.477C119.21 140.477 125.718 133.971 125.718 125.947C125.718 117.922 119.21 111.417 111.182 111.417C103.154 111.417 96.6465 117.922 96.6465 125.947C96.6465 133.971 103.154 140.477 111.182 140.477Z" fill="#FFB8B8"/>
<path d="M103.388 148.172L101.519 153.457L104.268 169.364L115.599 178.775L124.597 164.867L120.265 151.708L117.015 148.044C117.047 147.714 117.011 147.382 116.908 147.067C116.805 146.753 116.639 146.463 116.418 146.215C116.198 145.968 115.929 145.769 115.629 145.631C115.328 145.492 115.002 145.418 114.671 145.411L107.575 145.273C106.661 145.255 105.764 145.526 105.013 146.046C104.261 146.566 103.693 147.31 103.388 148.172Z" fill="#CCCCCC"/>
<path d="M133.499 315.722L140.755 315.721L141.757 287.746L133.497 287.748L133.499 315.722Z" fill="#FFB8B8"/>
<path d="M154.749 322.454L131.946 322.456L131.945 313.65L145.938 313.648C148.275 313.648 150.516 314.576 152.168 316.227C153.82 317.879 154.749 320.119 154.749 322.454L154.749 322.454Z" fill="#2F2E41"/>
<path d="M82.6723 315.722L89.928 315.721L93.3783 287.746L82.6699 287.748L82.6723 315.722Z" fill="#FFB8B8"/>
<path d="M103.922 322.454L81.1187 322.456L81.1179 313.65L95.1108 313.648C97.4474 313.648 99.6884 314.576 101.341 316.227C102.993 317.879 103.922 320.119 103.922 322.454L103.922 322.454Z" fill="#2F2E41"/>
<path d="M146.469 119.266C147.213 119.716 147.85 120.323 148.334 121.046C148.818 121.769 149.137 122.589 149.27 123.448C149.403 124.308 149.345 125.186 149.102 126.021C148.858 126.856 148.435 127.627 147.861 128.281L153.862 140.479L147.335 145.933L139.102 128.587C138.068 127.55 137.45 126.17 137.365 124.708C137.281 123.246 137.736 121.805 138.644 120.656C139.552 119.507 140.85 118.731 142.292 118.474C143.734 118.218 145.22 118.5 146.469 119.266H146.469Z" fill="#FFB8B8"/>
<path d="M103.208 214.789C99.6713 214.743 96.1403 214.482 92.6347 214.009C92.0349 213.934 91.4582 213.73 90.9436 213.413C90.4291 213.096 89.9886 212.672 89.6519 212.17C89.3152 211.668 89.0901 211.1 88.9918 210.503C88.8935 209.907 88.9243 209.297 89.0822 208.713L96.9364 179.643L90.6112 161.905C89.9297 159.989 90.006 157.886 90.8247 156.025C91.6433 154.163 93.1423 152.685 95.0151 151.892L103.703 148.22L106.315 164.378L112.536 172.219C112.742 172.479 113.01 172.685 113.315 172.817C113.62 172.95 113.953 173.005 114.284 172.978C114.615 172.951 114.935 172.843 115.215 172.663C115.494 172.484 115.725 172.238 115.887 171.947L120.611 163.483L116.753 147.929L122.506 148.609C124.363 148.835 126.12 149.578 127.576 150.753C129.031 151.928 130.127 153.488 130.739 155.256C132.507 160.396 132.662 165.953 131.181 171.183L128.797 179.649L132.983 206.697C133.098 207.434 133.062 208.187 132.876 208.909C132.691 209.632 132.361 210.309 131.907 210.9C131.452 211.492 130.882 211.985 130.231 212.349C129.58 212.714 128.862 212.943 128.12 213.022C125.445 213.33 122.751 213.442 120.06 213.359C117.617 213.255 115.902 211.766 115.099 209.054C115.055 208.895 114.961 208.755 114.83 208.654C114.7 208.554 114.54 208.5 114.375 208.499C114.21 208.498 114.05 208.551 113.918 208.65C113.786 208.749 113.69 208.888 113.645 209.046C113.423 209.834 113.178 210.711 112.912 211.677C112.265 214.024 108.214 214.789 103.208 214.789Z" fill="#2F2E41"/>
<path d="M128.454 162.316C127.732 162.318 127.018 162.177 126.352 161.901C125.569 161.577 124.878 161.065 124.339 160.412C123.801 159.758 123.431 158.982 123.263 158.152C123.01 156.835 123.186 155.472 123.767 154.263C124.347 153.055 125.301 152.064 126.487 151.439L143.441 142.238L142.514 138.573C142.385 138.011 142.425 137.423 142.628 136.884C142.83 136.344 143.187 135.875 143.653 135.536L148.025 132.29C148.357 132.035 148.742 131.858 149.151 131.772C149.561 131.685 149.985 131.692 150.392 131.79C150.75 131.88 151.084 132.049 151.369 132.285C151.653 132.521 151.882 132.818 152.037 133.153L154.308 138.055C156.105 141.933 154.568 146.709 150.734 149.164L131.719 161.34C130.746 161.97 129.613 162.309 128.454 162.316Z" fill="#2F2E41"/>
<path d="M92.7352 302.717C92.6762 302.717 92.6168 302.716 92.5572 302.712L83.3196 302.341C82.9613 302.318 82.6112 302.224 82.2904 302.063C81.9696 301.902 81.6847 301.678 81.4527 301.404C81.2208 301.13 81.0467 300.812 80.9408 300.469C80.8349 300.126 80.7994 299.766 80.8365 299.409L90.2121 209.246L114.818 200.302L129.307 208.499L145.159 295.862C145.284 296.531 145.148 297.222 144.779 297.793C144.41 298.364 143.836 298.773 143.176 298.935L143.137 298.945L133.681 298.713C133.029 298.86 132.346 298.758 131.766 298.426C131.186 298.095 130.751 297.558 130.547 296.922L110.409 226.28C110.348 226.095 110.229 225.936 110.069 225.825C109.909 225.715 109.718 225.66 109.524 225.669C109.33 225.678 109.144 225.751 108.995 225.875C108.846 226 108.742 226.169 108.699 226.359L95.3299 300.633C95.2001 301.224 94.872 301.753 94.4001 302.132C93.9281 302.511 93.3407 302.718 92.7352 302.717Z" fill="#2F2E41"/>
<path d="M98.4869 116.774C96.1745 119.8 97.9343 124.951 101.615 125.931C105.296 126.911 109.386 123.318 108.886 119.543C108.091 123.503 111.482 127.648 115.508 128C119.533 128.352 123.447 125.199 124.328 121.257C125.209 117.315 123.243 113.008 119.897 110.743C116.551 108.479 112.07 108.184 108.284 109.596C104.419 111.041 101.029 113.525 98.4869 116.774Z" fill="#2F2E41"/>
<path d="M116.009 103.858C113.856 99.3414 111.644 94.7381 108.164 91.142C104.684 87.5459 99.6495 85.0691 94.7166 85.9171C89.7837 86.7651 85.5357 91.7417 86.6283 96.6243C87.1833 99.1044 85.0588 101.562 82.6099 102.245C80.1611 102.928 77.5512 102.289 75.1303 101.513C72.7094 100.737 70.2569 99.8095 67.7168 99.9188C62.6236 100.138 58.3652 104.957 58.1863 110.05C58.0074 115.143 61.4731 119.99 66.123 122.079C70.7728 124.169 76.3348 123.701 80.9212 121.476C85.5077 119.251 89.1749 115.415 91.8566 111.081C95.8192 104.677 105.777 103.098 111.528 107.961C112.144 108.444 112.92 108.678 113.7 108.615C114.481 108.553 115.209 108.198 115.74 107.623C116.757 106.437 116.61 104.435 116.009 103.858Z" fill="#2F2E41"/>
<path d="M224.625 78.4747L219.776 74.1021C202.556 58.2984 191.188 48.0411 191.188 35.2637C191.188 24.8389 199.212 16.7688 209.578 16.7688C212.449 16.7841 215.282 17.4237 217.88 18.6432C220.478 19.8626 222.78 21.6328 224.625 23.8308C226.47 21.6328 228.772 19.8626 231.371 18.6431C233.969 17.4236 236.802 16.784 239.672 16.7688C250.038 16.7688 258.063 24.8389 258.063 35.2637C258.063 48.0413 246.694 58.2986 229.474 74.1021L224.625 78.4747Z" fill="#6C4FE1"/>
<path d="M144.795 108.545C144.341 108.387 143.948 108.091 143.671 107.698C143.394 107.304 143.246 106.834 143.25 106.354V5.32418C143.252 3.91261 143.813 2.55933 144.812 1.5612C145.81 0.563071 147.164 0.00161425 148.576 0H300.674C302.086 0.00161425 303.44 0.563071 304.438 1.5612C305.437 2.55933 305.998 3.91261 306 5.32418V90.511C305.998 91.9226 305.437 93.2758 304.438 94.274C303.44 95.2721 302.086 95.8335 300.674 95.8352H157.196L147.38 107.828C147.165 108.095 146.892 108.31 146.583 108.459C146.273 108.607 145.934 108.684 145.591 108.685C145.32 108.684 145.051 108.637 144.795 108.545ZM148.576 1.18315C147.478 1.18438 146.425 1.62106 145.648 2.39739C144.872 3.17371 144.435 4.22629 144.434 5.32418V106.354C144.434 106.59 144.507 106.82 144.643 107.013C144.779 107.206 144.971 107.352 145.194 107.431C145.416 107.511 145.657 107.519 145.885 107.456C146.112 107.393 146.315 107.261 146.464 107.078L156.635 94.652H300.674C301.772 94.6508 302.825 94.2141 303.602 93.4378C304.378 92.6615 304.815 91.6089 304.816 90.511V5.32418C304.815 4.22629 304.378 3.17371 303.602 2.39739C302.825 1.62106 301.772 1.18438 300.674 1.18315H148.576Z" fill="#3F3D56"/>
<path d="M99.9447 200.753L98.9169 198.365C95.3129 189.785 92.9044 184.184 95.0289 179.56C95.7998 177.802 97.238 176.422 99.027 175.723C100.816 175.025 102.809 175.065 104.568 175.836C104.633 175.864 104.696 175.893 104.76 175.923C105.796 176.405 106.715 177.107 107.452 177.98C108.19 178.853 108.728 179.876 109.031 180.978C110.064 180.489 111.191 180.231 112.334 180.222C113.477 180.212 114.609 180.451 115.65 180.923C116.519 181.309 117.303 181.863 117.957 182.553C118.612 183.243 119.124 184.055 119.465 184.942C119.805 185.83 119.968 186.776 119.943 187.726C119.918 188.676 119.705 189.612 119.319 190.481C119.29 190.544 119.261 190.608 119.23 190.671C117.106 195.295 111.286 197.118 102.427 199.976L99.9447 200.753Z" fill="#6C4FE1"/>
<path d="M103.906 189.022C103.629 188.198 103.175 187.444 102.575 186.814C101.975 186.184 101.245 185.693 100.435 185.376C99.6246 185.059 98.7548 184.923 97.8865 184.978C97.0183 185.034 96.1726 185.278 95.4093 185.696L84.7719 177.708L82.2041 185.015L93.1974 194.172C93.9836 195.407 95.1958 196.312 96.6044 196.713C98.0129 197.115 99.52 196.986 100.84 196.352C102.16 195.717 103.201 194.62 103.766 193.269C104.331 191.919 104.381 190.407 103.906 189.022H103.906Z" fill="#FFB8B8"/>
<path d="M88.6539 191.542C88.1853 191.542 87.7264 191.409 87.3306 191.158L82.7624 188.272C79.1479 185.989 77.8463 181.144 79.7348 177.002L89.0993 156.461C89.4751 155.6 90.0538 154.843 90.7859 154.254C91.5181 153.665 92.3819 153.262 93.3037 153.079C94.1372 152.927 94.9953 152.982 95.8026 153.239C96.6099 153.496 97.3416 153.948 97.9332 154.554C98.8608 155.522 99.4524 156.763 99.6207 158.093C99.789 159.424 99.5251 160.773 98.868 161.941L89.6202 178.865L92.3885 181.44C92.8014 181.843 93.0869 182.358 93.2098 182.921C93.3327 183.485 93.2874 184.071 93.0798 184.609L91.1694 189.707C91.0284 190.101 90.801 190.459 90.5038 190.753C90.2067 191.048 89.8474 191.273 89.4522 191.411C89.1949 191.497 88.9253 191.542 88.6539 191.542Z" fill="#2F2E41"/>
<path d="M186.423 323H0.591818C0.434858 323 0.284335 322.938 0.173348 322.827C0.0623606 322.716 0 322.565 0 322.408C0 322.252 0.0623606 322.101 0.173348 321.99C0.284335 321.879 0.434858 321.817 0.591818 321.817H186.423C186.58 321.817 186.73 321.879 186.841 321.99C186.952 322.101 187.014 322.252 187.014 322.408C187.014 322.565 186.952 322.716 186.841 322.827C186.73 322.938 186.58 323 186.423 323Z" fill="#CCCCCC"/>
</g>
<defs>
<clipPath id="clip0_67_4601">
<rect width="306" height="323" fill="white"/>
</clipPath>
</defs>
</svg>
