<svg width="462" height="256" viewBox="0 0 462 256" fill="none" xmlns="http://www.w3.org/2000/svg">
<path d="M461.902 230.091C440.789 238.19 417.953 240.735 395.578 237.481C366.449 232.919 343.019 217.819 339.828 222.655C338.734 224.251 339.828 228.448 351.589 240.674C336.653 246.24 321.177 250.231 305.412 252.581C285.31 255.592 221.037 265.126 167.521 228.904C142.245 211.093 122.358 186.661 110.04 158.286C89.9827 113.533 97.7776 77.5396 65.5041 43.5076C58.6547 36.3027 50.9017 30.0157 42.4387 24.8037C18.8718 21.9297 0 19.3294 0 18.2345C0 18.2345 0.911679 18.2345 1.18518 18.2345C14.4045 16.7747 54.7007 2.49586 118.518 0.762325C170.985 -0.697493 202.575 -1.60988 240.273 13.3076C276.086 27.9544 307.362 51.8705 330.894 82.6034C348.58 104.526 361.051 130.188 367.361 157.647C371.832 177.079 373.11 197.109 371.145 216.952C384.188 224.097 398.589 228.411 413.41 229.614C428.231 230.816 443.138 228.88 457.161 223.932L461.902 230.091Z" fill="#55AF2B"/>
</svg>
