<svg width="35" height="35" viewBox="0 0 35 35" fill="none" xmlns="http://www.w3.org/2000/svg">
<rect width="35" height="35" rx="4" fill="#6C4FE1"/>
<path d="M13.584 22C13.4667 22 13.3707 21.9627 13.296 21.888C13.2213 21.8133 13.184 21.7173 13.184 21.6V11.2C13.184 11.0827 13.2213 10.9867 13.296 10.912C13.3707 10.8373 13.4667 10.8 13.584 10.8H15.36C15.4773 10.8 15.5733 10.8373 15.648 10.912C15.7227 10.9867 15.76 11.0827 15.76 11.2V19.856H20.72C20.8373 19.856 20.9333 19.8933 21.008 19.968C21.0827 20.0427 21.12 20.1387 21.12 20.256V21.6C21.12 21.7173 21.0827 21.8133 21.008 21.888C20.9333 21.9627 20.8373 22 20.72 22H13.584Z" fill="white"/>
</svg>
