<svg width="120" height="40" viewBox="0 0 120 40" fill="none" xmlns="http://www.w3.org/2000/svg">
<rect width="120" height="40" rx="8" fill="#6C4FE1"/>
<path d="M26.4668 29C26.2762 29 26.1202 28.9393 25.9988 28.818C25.8775 28.6967 25.8168 28.5407 25.8168 28.35V11.45C25.8168 11.2593 25.8775 11.1033 25.9988 10.982C26.1202 10.8607 26.2762 10.8 26.4668 10.8H29.8988C30.0722 10.8 30.2195 10.8607 30.3408 10.982C30.4795 11.1033 30.5488 11.2593 30.5488 11.45V25.074H38.4008C38.5915 25.074 38.7475 25.1433 38.8688 25.282C39.0075 25.4033 39.0768 25.5593 39.0768 25.75V28.35C39.0768 28.5407 39.0075 28.6967 38.8688 28.818C38.7475 28.9393 38.5915 29 38.4008 29H26.4668ZM48.5634 29.26C46.9687 29.26 45.582 29 44.4034 28.48C43.2247 27.96 42.306 27.18 41.6474 26.14C40.9887 25.0827 40.6247 23.7653 40.5554 22.188C40.538 21.4427 40.5294 20.6973 40.5294 19.952C40.5294 19.2067 40.538 18.4527 40.5554 17.69C40.6247 16.13 40.9887 14.8213 41.6474 13.764C42.3234 12.6893 43.2507 11.8833 44.4294 11.346C45.608 10.8087 46.986 10.54 48.5634 10.54C50.1234 10.54 51.4927 10.8087 52.6714 11.346C53.8674 11.8833 54.8034 12.6893 55.4794 13.764C56.1554 14.8213 56.5194 16.13 56.5714 17.69C56.606 18.4527 56.6234 19.2067 56.6234 19.952C56.6234 20.6973 56.606 21.4427 56.5714 22.188C56.502 23.7653 56.138 25.0827 55.4794 26.14C54.8207 27.18 53.902 27.96 52.7234 28.48C51.5447 29 50.158 29.26 48.5634 29.26ZM48.5634 25.516C49.482 25.516 50.2274 25.2387 50.7994 24.684C51.3887 24.1293 51.7007 23.2453 51.7354 22.032C51.77 21.2693 51.7874 20.55 51.7874 19.874C51.7874 19.198 51.77 18.496 51.7354 17.768C51.7007 16.9533 51.5447 16.2947 51.2674 15.792C51.0074 15.272 50.6434 14.8907 50.1754 14.648C49.7074 14.4053 49.17 14.284 48.5634 14.284C47.974 14.284 47.4454 14.4053 46.9774 14.648C46.5094 14.8907 46.1367 15.272 45.8594 15.792C45.582 16.2947 45.426 16.9533 45.3914 17.768C45.374 18.496 45.3654 19.198 45.3654 19.874C45.3654 20.55 45.374 21.2693 45.3914 22.032C45.4434 23.2453 45.7554 24.1293 46.3274 24.684C46.8994 25.2387 47.6447 25.516 48.5634 25.516ZM67.1511 29.26C65.5045 29.26 64.0831 28.9913 62.8871 28.454C61.7085 27.8993 60.7898 27.102 60.1311 26.062C59.4898 25.0047 59.1345 23.722 59.0651 22.214C59.0478 21.4687 59.0391 20.68 59.0391 19.848C59.0391 18.9987 59.0478 18.1927 59.0651 17.43C59.1345 15.9567 59.4985 14.7087 60.1571 13.686C60.8158 12.6633 61.7431 11.8833 62.9391 11.346C64.1351 10.8087 65.5391 10.54 67.1511 10.54C68.4511 10.54 69.6038 10.7047 70.6091 11.034C71.6145 11.346 72.4551 11.7707 73.1311 12.308C73.8245 12.8453 74.3445 13.4347 74.6911 14.076C75.0551 14.7173 75.2458 15.35 75.2631 15.974C75.2805 16.13 75.2285 16.26 75.1071 16.364C75.0031 16.468 74.8731 16.52 74.7171 16.52H70.9211C70.7305 16.52 70.5831 16.494 70.4791 16.442C70.3925 16.3727 70.3145 16.2773 70.2451 16.156C70.1238 15.896 69.9418 15.6273 69.6991 15.35C69.4738 15.0553 69.1531 14.804 68.7371 14.596C68.3385 14.388 67.8098 14.284 67.1511 14.284C66.1631 14.284 65.3831 14.544 64.8111 15.064C64.2565 15.584 63.9531 16.416 63.9011 17.56C63.8491 19.0507 63.8491 20.5587 63.9011 22.084C63.9531 23.2973 64.2738 24.1727 64.8631 24.71C65.4525 25.2473 66.2325 25.516 67.2031 25.516C67.8618 25.516 68.4425 25.4033 68.9451 25.178C69.4651 24.9527 69.8725 24.606 70.1671 24.138C70.4618 23.6527 70.6091 23.0373 70.6091 22.292V21.798H68.1651C67.9745 21.798 67.8098 21.7373 67.6711 21.616C67.5498 21.4773 67.4891 21.3127 67.4891 21.122V19.198C67.4891 19.0073 67.5498 18.8513 67.6711 18.73C67.8098 18.5913 67.9745 18.522 68.1651 18.522H74.7171C74.9078 18.522 75.0638 18.5913 75.1851 18.73C75.3065 18.8513 75.3671 19.0073 75.3671 19.198V22.162C75.3671 23.6527 75.0291 24.9267 74.3531 25.984C73.6771 27.0413 72.7151 27.856 71.4671 28.428C70.2365 28.9827 68.7978 29.26 67.1511 29.26ZM85.786 29.26C84.1914 29.26 82.8047 29 81.626 28.48C80.4474 27.96 79.5287 27.18 78.87 26.14C78.2114 25.0827 77.8474 23.7653 77.778 22.188C77.7607 21.4427 77.752 20.6973 77.752 19.952C77.752 19.2067 77.7607 18.4527 77.778 17.69C77.8474 16.13 78.2114 14.8213 78.87 13.764C79.546 12.6893 80.4734 11.8833 81.652 11.346C82.8307 10.8087 84.2087 10.54 85.786 10.54C87.346 10.54 88.7154 10.8087 89.894 11.346C91.09 11.8833 92.026 12.6893 92.702 13.764C93.378 14.8213 93.742 16.13 93.794 17.69C93.8287 18.4527 93.846 19.2067 93.846 19.952C93.846 20.6973 93.8287 21.4427 93.794 22.188C93.7247 23.7653 93.3607 25.0827 92.702 26.14C92.0434 27.18 91.1247 27.96 89.946 28.48C88.7674 29 87.3807 29.26 85.786 29.26ZM85.786 25.516C86.7047 25.516 87.45 25.2387 88.022 24.684C88.6114 24.1293 88.9234 23.2453 88.958 22.032C88.9927 21.2693 89.01 20.55 89.01 19.874C89.01 19.198 88.9927 18.496 88.958 17.768C88.9234 16.9533 88.7674 16.2947 88.49 15.792C88.23 15.272 87.866 14.8907 87.398 14.648C86.93 14.4053 86.3927 14.284 85.786 14.284C85.1967 14.284 84.668 14.4053 84.2 14.648C83.732 14.8907 83.3594 15.272 83.082 15.792C82.8047 16.2947 82.6487 16.9533 82.614 17.768C82.5967 18.496 82.588 19.198 82.588 19.874C82.588 20.55 82.5967 21.2693 82.614 22.032C82.666 23.2453 82.978 24.1293 83.55 24.684C84.122 25.2387 84.8674 25.516 85.786 25.516Z" fill="white"/>
</svg>
